<?xml version="1.0" standalone="no"?>
<!DOCTYPE svg PUBLIC "-//W3C//DTD SVG 20010904//EN"
 "http://www.w3.org/TR/2001/REC-SVG-20010904/DTD/svg10.dtd">
<svg version="1.0" xmlns="http://www.w3.org/2000/svg"
 width="512.000000pt" height="512.000000pt" viewBox="0 0 512.000000 512.000000"
 preserveAspectRatio="xMidYMid meet">
<metadata>
Created by potrace 1.16, written by Peter Selinger 2001-2019
</metadata>
<g transform="translate(0.000000,512.000000) scale(0.100000,-0.100000)"
fill="#000000" stroke="none">
<path d="M2250 4939 c-25 -4 -69 -11 -99 -14 -30 -4 -66 -11 -80 -17 -14 -5
-44 -13 -66 -18 -38 -8 -167 -50 -210 -69 -134 -58 -441 -234 -475 -272 -3 -3
-15 -12 -28 -21 -21 -14 -26 -14 -60 3 -47 23 -98 44 -143 58 -34 11 -53 15
-109 26 -14 2 -49 9 -79 15 -76 14 -133 12 -236 -9 -121 -25 -234 -70 -273
-108 -7 -7 -17 -13 -21 -13 -4 0 -16 -8 -27 -17 -11 -10 -40 -36 -64 -57 -121
-107 -227 -318 -247 -491 -3 -27 -9 -54 -13 -60 -10 -13 -10 -137 0 -150 4 -5
10 -32 14 -60 14 -117 67 -268 163 -462 73 -150 74 -154 62 -190 -34 -101 -46
-199 -44 -343 2 -80 6 -161 9 -180 4 -19 8 -52 11 -72 2 -20 8 -54 14 -75 5
-21 12 -51 15 -68 13 -80 95 -288 147 -374 12 -19 12 -23 -1 -31 -64 -37 -129
-136 -159 -242 -31 -110 -16 -264 37 -368 9 -19 19 -37 22 -40 3 -3 16 -20 29
-38 65 -93 223 -166 363 -167 43 0 78 -2 79 -5 5 -33 12 -60 30 -112 131 -389
539 -657 1074 -704 38 -3 72 -9 75 -14 7 -11 413 -11 420 -1 3 5 37 11 75 15
90 8 134 14 143 20 4 2 28 7 52 11 145 21 387 111 529 197 34 21 65 38 68 38
4 0 88 63 141 105 56 45 200 195 249 260 64 86 133 202 154 259 10 27 20 37
43 41 38 8 169 52 213 71 17 8 34 14 37 14 3 0 48 25 99 56 107 66 244 198
296 287 18 31 47 97 64 145 27 76 31 102 33 209 2 125 -11 199 -53 313 -37 99
-152 260 -208 290 -14 7 -25 18 -26 24 0 15 -84 75 -139 99 -96 44 -324 42
-485 -3 -120 -34 -207 -78 -246 -124 -15 -18 -17 -17 -52 20 -51 53 -114 183
-133 273 -14 72 -13 108 4 97 11 -6 146 26 277 66 121 37 271 113 331 170 59
55 98 136 97 199 -2 117 -105 233 -259 293 -38 15 -78 31 -89 36 -27 12 -84
28 -119 34 -16 3 -31 8 -34 11 -3 3 4 29 15 58 22 54 31 82 38 115 2 11 8 36
13 55 17 60 11 262 -9 338 -42 159 -101 269 -204 374 -101 104 -187 157 -345
214 -44 17 -97 32 -117 36 -19 3 -39 7 -43 10 -7 5 -34 9 -117 20 -21 2 -54 7
-73 11 -51 9 -298 11 -350 3z m385 -221 c22 -5 54 -11 70 -13 228 -31 453
-173 533 -337 47 -96 60 -155 60 -282 0 -102 -3 -121 -36 -221 l-37 -110 -45
1 c-25 0 -76 4 -115 8 -75 9 -84 9 -218 21 -152 13 -591 30 -772 30 -97 0
-345 -12 -410 -21 -146 -18 -205 -27 -290 -44 -33 -7 -80 -16 -105 -21 -25 -5
-61 -13 -80 -18 -19 -6 -51 -14 -70 -19 -136 -35 -386 -146 -489 -217 -62 -43
-92 -68 -176 -147 l-60 -56 -43 96 c-84 192 -110 299 -109 445 0 123 23 224
73 324 40 80 142 181 224 220 104 51 137 58 260 58 93 0 131 -5 198 -24 45
-14 82 -27 82 -30 0 -3 -43 -44 -94 -91 -88 -80 -126 -130 -126 -166 0 -49 61
-101 118 -102 29 -1 48 13 135 95 182 171 392 327 567 422 167 90 290 139 455
181 100 25 126 27 285 27 96 0 193 -4 215 -9z m-370 -1122 c135 -11 190 -19
280 -40 51 -11 206 -70 215 -82 7 -8 18 -14 25 -14 19 0 114 -88 140 -131 37
-58 56 -138 61 -266 5 -128 9 -174 18 -213 3 -14 8 -38 12 -55 24 -122 79
-255 147 -355 50 -73 192 -190 230 -190 22 0 106 -87 113 -117 3 -16 10 -45
16 -66 23 -95 -53 -217 -173 -275 -92 -45 -134 -51 -293 -48 -160 4 -169 5
-257 29 -70 19 -119 43 -139 68 -8 11 -31 27 -50 37 -30 15 -35 22 -38 58 -4
49 30 96 81 113 36 12 77 65 77 100 0 62 -50 111 -113 111 -61 0 -191 -111
-228 -196 -19 -43 -19 -43 -67 -39 -56 5 -128 13 -162 20 -38 7 -92 16 -123
20 -15 2 -31 6 -36 9 -4 3 -23 8 -42 11 -19 3 -54 12 -79 20 -25 8 -58 17 -75
20 -16 2 -41 8 -55 11 -59 14 -209 13 -261 -2 -99 -30 -195 -108 -271 -220
-52 -77 -39 -142 35 -178 69 -32 96 -85 242 -466 126 -327 260 -486 468 -550
46 -14 54 -16 133 -25 64 -7 195 13 239 38 12 6 41 22 64 35 132 72 253 266
317 505 13 48 26 102 30 120 9 51 15 90 18 117 2 14 4 31 4 38 1 8 9 11 20 8
90 -27 324 -40 437 -24 212 31 383 143 469 308 58 112 64 211 20 344 -18 54
-76 153 -103 174 -20 16 -11 22 69 53 78 30 102 33 220 34 98 0 109 -2 170
-32 119 -58 214 -162 262 -285 30 -78 35 -284 8 -371 -43 -137 -147 -248 -305
-325 -132 -65 -186 -84 -285 -103 -50 -10 -72 -20 -97 -45 -18 -17 -33 -39
-33 -49 0 -41 -100 -220 -174 -310 -53 -66 -161 -173 -211 -210 -22 -16 -42
-33 -45 -36 -21 -26 -242 -145 -325 -174 -27 -9 -59 -21 -70 -26 -11 -5 -40
-13 -65 -19 -25 -6 -54 -13 -65 -16 -158 -39 -375 -58 -598 -50 -92 3 -171 7
-175 10 -4 2 -28 7 -52 10 -25 3 -70 10 -100 16 -30 6 -66 13 -79 16 -47 10
-188 62 -251 94 -232 116 -402 332 -426 540 -8 66 -26 105 -57 121 -12 7 -67
14 -122 15 -132 3 -163 10 -240 51 -56 29 -80 59 -100 121 -18 56 -17 181 3
232 24 62 95 101 192 106 53 2 78 -3 139 -27 63 -25 79 -28 106 -19 66 22 93
78 68 141 -12 32 -26 44 -77 68 -70 34 -144 51 -220 51 l-53 0 -40 77 c-40 79
-88 204 -97 256 -3 16 -9 43 -15 60 -36 115 -49 444 -21 560 10 39 22 84 29
100 38 95 161 234 266 302 64 41 198 110 235 120 14 4 30 11 35 15 9 7 159 57
195 65 8 2 35 8 60 14 25 7 57 13 73 16 15 2 31 7 36 9 5 3 25 8 45 11 20 3
53 7 74 10 20 3 44 7 52 10 8 2 42 7 75 10 33 3 80 7 105 10 25 2 99 7 165 10
66 4 121 8 122 9 4 3 175 -2 248 -8z m857 -52 c29 -2 60 -7 69 -10 10 -2 30
-6 45 -8 65 -9 119 -18 125 -21 3 -2 21 -7 40 -10 42 -7 170 -51 224 -76 48
-23 105 -72 105 -92 0 -21 -50 -63 -115 -95 -49 -25 -201 -80 -240 -88 -5 -1
-30 -7 -55 -14 -107 -29 -114 -26 -124 45 -16 125 -77 254 -165 349 l-36 38
37 -6 c20 -4 60 -9 90 -12z m-1362 -1633 c30 -11 238 -58 290 -66 115 -17 196
-27 255 -32 65 -4 95 -15 95 -33 0 -4 -28 -20 -62 -36 -58 -27 -72 -29 -178
-28 -63 0 -158 5 -210 10 -169 16 -287 5 -362 -33 -20 -9 -28 -10 -28 -2 0 6
-25 47 -56 91 l-55 79 31 29 c28 26 48 33 120 43 22 4 131 -12 160 -22z m795
-323 c-3 -18 -7 -57 -9 -86 -3 -29 -8 -57 -11 -61 -2 -5 -7 -26 -10 -47 -10
-65 -54 -196 -89 -266 -47 -95 -97 -150 -166 -187 -55 -29 -67 -32 -142 -30
-135 3 -206 38 -285 143 -26 34 -68 106 -94 161 -44 93 -99 240 -99 264 0 20
112 44 193 43 44 -1 82 -4 86 -6 12 -8 161 -21 236 -21 67 0 115 6 180 21 30
7 172 78 190 95 17 17 24 9 20 -23z"/>
<path d="M1525 3172 c-38 -10 -92 -31 -120 -47 -81 -47 -209 -187 -230 -254
-11 -35 23 -91 68 -111 59 -27 99 -11 145 58 59 90 159 151 247 152 60 0 139
-28 210 -75 59 -40 269 -255 258 -265 -5 -4 -61 -24 -126 -45 -115 -36 -118
-38 -143 -81 -17 -29 -24 -52 -20 -68 9 -37 44 -74 81 -86 31 -10 42 -8 107
23 122 57 148 63 297 76 91 7 95 8 127 44 54 58 43 111 -33 168 -24 18 -90 83
-146 144 -138 150 -198 206 -281 262 -158 108 -299 141 -441 105z"/>
<path d="M2730 2982 c-25 -8 -61 -45 -83 -87 -28 -55 -32 -178 -7 -251 57
-165 164 -242 242 -175 56 49 86 173 65 267 -36 161 -133 272 -217 246z"/>
</g>
</svg>
